<?xml version="1.0" encoding="utf-8"?>
<!-- Generator: Adobe Illustrator 16.0.0, SVG Export Plug-In . SVG Version: 6.00 Build 0)  -->
<!DOCTYPE svg PUBLIC "-//W3C//DTD SVG 1.1//EN" "http://www.w3.org/Graphics/SVG/1.1/DTD/svg11.dtd">
<svg version="1.1" id="Capa_1" xmlns="http://www.w3.org/2000/svg" xmlns:xlink="http://www.w3.org/1999/xlink" x="0px" y="0px"
	 width="26px" height="26px" viewBox="0 -5 26 26" enable-background="new 0 -5 26 26" xml:space="preserve">
<path fill="#FFFFFF" d="M8.147-2.818C6.109-1.641,4.65,0.26,4.041,2.534S3.744,7.184,4.921,9.222c1.57,2.72,4.497,4.409,7.64,4.409
	c0.992,0,1.977-0.17,2.91-0.498L19.437,20l2.827-1.632L18.3,11.501c1.339-1.146,2.303-2.666,2.769-4.404
	c0.609-2.274,0.296-4.649-0.88-6.688C18.618-2.311,15.689-4,12.548-4C11.009-4,9.486-3.591,8.147-2.818z M17.361,2.04
	c0.741,1.284,0.938,2.78,0.555,4.212s-1.304,2.629-2.587,3.369c-0.844,0.488-1.801,0.746-2.768,0.746
	c-1.98,0-3.825-1.063-4.813-2.776c-0.742-1.284-0.938-2.78-0.555-4.212s1.302-2.628,2.585-3.37c0.844-0.487,1.802-0.745,2.769-0.745
	C14.528-0.735,16.372,0.329,17.361,2.04z"/>
</svg>
