<?xml version="1.0" encoding="utf-8"?>
<!-- Generator: Adobe Illustrator 16.0.0, SVG Export Plug-In . SVG Version: 6.00 Build 0)  -->
<!DOCTYPE svg PUBLIC "-//W3C//DTD SVG 1.1//EN" "http://www.w3.org/Graphics/SVG/1.1/DTD/svg11.dtd">
<svg version="1.1" id="Calque_1" xmlns="http://www.w3.org/2000/svg" xmlns:xlink="http://www.w3.org/1999/xlink" x="0px" y="0px"
	 width="26px" height="26px" viewBox="0 -5 26 26" enable-background="new 0 -5 26 26" xml:space="preserve">
<path fill="#FFFFFF" d="M14.604,10.83c0.238,0.186,0.281,0.529,0.096,0.764c-0.066,0.08-0.146,0.143-0.244,0.176
	c-5.565,1.729-7.814-6.471-2.092-7.72c0.559-0.085,1.129-0.06,1.682,0.071c0.291,0.073,0.465,0.37,0.391,0.66
	c-0.025,0.098-0.078,0.187-0.148,0.256c-1.529,1.354-1.672,3.694-0.316,5.223C14.158,10.473,14.371,10.664,14.604,10.83z M25,8
	c0,0.829-0.672,1.5-1.5,1.5h-1.635c-0.227,1.336-0.752,2.602-1.537,3.705l1.152,1.158c0.576,0.598,0.559,1.547-0.031,2.119
	c-0.582,0.564-1.504,0.564-2.086,0l-1.158-1.154c-1.104,0.785-2.369,1.311-3.703,1.537v1.637C14.502,19.328,13.828,20,13,20
	s-1.5-0.672-1.5-1.498v-1.637c-1.336-0.227-2.604-0.752-3.708-1.537l-1.158,1.154c-0.594,0.576-1.544,0.561-2.121-0.033
	c-0.562-0.582-0.562-1.504,0-2.084l1.157-1.158c-0.787-1.102-1.312-2.369-1.538-3.705H2.5C1.671,9.5,1,8.828,1,8
	c0-0.828,0.671-1.5,1.5-1.5h1.635C4.36,5.165,4.886,3.896,5.673,2.792L4.515,1.634C3.939,1.04,3.957,0.09,4.551-0.485
	c0.583-0.561,1.503-0.561,2.083,0l1.158,1.158C8.896-0.114,10.164-0.64,11.5-0.865V-2.5C11.5-3.329,12.172-4,13-4
	s1.502,0.671,1.502,1.5v1.635c1.334,0.226,2.6,0.751,3.703,1.538l1.158-1.158c0.598-0.576,1.547-0.558,2.119,0.036
	c0.564,0.583,0.564,1.503,0,2.083l-1.154,1.158c0.785,1.104,1.311,2.372,1.537,3.707h1.637C24.328,6.5,25,7.171,25,8z M19,8
	C18.748,0.072,7.251,0.072,7,8C7.251,15.928,18.75,15.928,19,8z"/>
</svg>
